<svg width="18" height="26" viewBox="0 0 18 26"  xmlns="http://www.w3.org/2000/svg">
<path d="M8.66075 12.4325C7.86535 12.4325 7.10254 12.1072 6.54011 11.5282C5.97768 10.9492 5.66171 10.1639 5.66171 9.34501C5.66171 8.52616 5.97768 7.74084 6.54011 7.16182C7.10254 6.5828 7.86535 6.25751 8.66075 6.25751C9.45615 6.25751 10.219 6.5828 10.7814 7.16182C11.3438 7.74084 11.6598 8.52616 11.6598 9.34501C11.6598 9.75047 11.5822 10.152 11.4315 10.5265C11.2808 10.9011 11.0599 11.2415 10.7814 11.5282C10.5029 11.8149 10.1723 12.0423 9.80843 12.1975C9.44457 12.3527 9.05459 12.4325 8.66075 12.4325ZM8.66075 0.700012C6.43364 0.700012 4.29775 1.61082 2.72295 3.23207C1.14814 4.85333 0.263428 7.05222 0.263428 9.34501C0.263428 15.8288 8.66075 25.4 8.66075 25.4C8.66075 25.4 17.0581 15.8288 17.0581 9.34501C17.0581 7.05222 16.1734 4.85333 14.5986 3.23207C13.0237 1.61082 10.8879 0.700012 8.66075 0.700012Z" />
</svg>
